{"title":"John Wick 2014 CAM XviD MP3 - Idiocracy","uid":11386067,"size":894300160,"categoryP":"video","categoryS":"movies","magnet":"?xt=urn:btih:17251f3cb9969095fa33e355d0febe612e08abd7&amp;dn=John+Wick+2014+CAM+XviD+MP3+-+Idiocracy&amp;tr=udp%3A%2F%2Ftracker.openbittorrent.com%3A80&amp;tr=udp%3A%2F%2Fopen.demonii.com%3A1337&amp;tr=udp%3A%2F%2Ftracker.coppersurfer.tk%3A6969&amp;tr=udp%3A%2F%2Fexodus.desync.com%3A6969","seeders":4,"leechers":1,"uploader":"Satafakap","files":-1,"time":1415264062,"description":"Synopsis / Plot\n\nAn ex-hitman comes out of retirement to track down the gangsters that took everything from him.\n\nDirectors: David Leitch, Chad Stahelski\nWriter: Derek Kolstad (screenplay)\nStars: Keanu Reeves, Michael Nyqvist, Alfie Allen \n &lt;a href=&quot;\nhttp://www.imdb.com/title/tt2911666/&quot; rel=&quot;nofollow&quot; target=&quot;_NEW&quot;&gt;\nhttp://www.imdb.com/title/tt2911666/&lt;/a&gt;\n\nGeneral\n\nComplete name           : John.Wick.2014.CAM.XviD.MP3-Idiocracy.avi\nFormat                  : AVI\nFormat/Info             : Audio Video Interleave\nFile size               : 843 MiB\nDuration                : 1h 34mn\nOverall bit rate        : 1 246 Kbps\nWriting application     : VirtualDubMod 1.5.10.3 | www.virtualdub-fr.org\nWriting library         : VirtualDubMod build 2550/release\nSource                  : John Wick 2014 CAM XviD-DUR3AL or John Wick 2014 \n                           HDCAM x264 Pimp4003 - Thanks!\nSample                  : Yes\n\nVideo\n\nID                                       : 0\nFormat                                   : MPEG-4 Visual\nFormat profile                           : Advanced Simple@L5\nFormat settings, BVOP                    : 2\nFormat settings, QPel                    : No\nFormat settings, GMC                     : No warppoints\nFormat settings, Matrix                  : Default (H.263)\nCodec ID                                 : XVID\nCodec ID/Hint                            : XviD\nDuration                                 : 1h 34mn\nBit rate                                 : 1 109 Kbps\nWidth                                    : 720 pixels\nHeight                                   : 320 pixels\nDisplay aspect ratio                     : 2.25:1\nFrame rate                               : 23.976 fps\nColor space                              : YUV\nChroma subsampling                       : 4:2:0\nBit depth                                : 8 bits\nScan type                                : Progressive\nCompression mode                         : Lossy\nBits/(Pixel*Frame)                       : 0.201\nStream size                              : 750 MiB (89%)\nWriting library                          : XviD 1.2.1 (UTC 2008-12-04)\n\nAudio\n\nID                                       : 1\nFormat                                   : MPEG Audio\nFormat version                           : Version 1\nFormat profile                           : Layer 3\nCodec ID                                 : 55\nCodec ID/Hint                            : MP3\nDuration                                 : 1h 34mn\nBit rate mode                            : Constant\nBit rate                                 : 128 Kbps\nChannel(s)                               : 2 channels\nSampling rate                            : 48.0 KHz\nCompression mode                         : Lossy\nStream size                              : 86.6 MiB (10%)\nAlignment                                : Aligned on interleaves\nInterleave, duration                     : 42 ms (1.00 video frame)\nInterleave, preload duration             : 504 ms\nWriting library                          : LAME3.99r\nEncoding settings                        : -m s -V 4 -q 0 -lowpass 17 -b 128\n &lt;a href=&quot;\nhttp://i.imgur.com/EESGLfN.jpg&quot; rel=&quot;nofollow&quot; target=&quot;_NEW&quot;&gt;\nhttp://i.imgur.com/EESGLfN.jpg&lt;/a&gt;\n &lt;a href=&quot;\nhttp://i.imgur.com/0coHVX6.jpg&quot; rel=&quot;nofollow&quot; target=&quot;_NEW&quot;&gt;\nhttp://i.imgur.com/0coHVX6.jpg&lt;/a&gt;\n &lt;a href=&quot;\nhttp://i.imgur.com/0jcz6VW.jpg&quot; rel=&quot;nofollow&quot; target=&quot;_NEW&quot;&gt;\nhttp://i.imgur.com/0jcz6VW.jpg&lt;/a&gt;\n &lt;a href=&quot;\nhttp://i.imgur.com/QT6NaRl.jpg&quot; rel=&quot;nofollow&quot; target=&quot;_NEW&quot;&gt;\nhttp://i.imgur.com/QT6NaRl.jpg&lt;/a&gt;\n &lt;a href=&quot;\nhttp://i.imgur.com/HhOAncG.jpg&quot; rel=&quot;nofollow&quot; target=&quot;_NEW&quot;&gt;\nhttp://i.imgur.com/HhOAncG.jpg&lt;/a&gt;","torrent":{"xt":"urn:btih:17251f3cb9969095fa33e355d0febe612e08abd7","amp;dn":"John+Wick+2014+CAM+XviD+MP3+-+Idiocracy","amp;tr":["udp%3A%2F%2Ftracker.openbittorrent.com%3A80","udp%3A%2F%2Fopen.demonii.com%3A1337","udp%3A%2F%2Ftracker.coppersurfer.tk%3A6969","udp%3A%2F%2Fexodus.desync.com%3A6969"],"infoHash":"17251f3cb9969095fa33e355d0febe612e08abd7","infoHashBuffer":{"type":"Buffer","data":[23,37,31,60,185,150,144,149,250,51,227,85,208,254,190,97,46,8,171,215]},"announce":[],"urlList":[]}}